<?xml version="1.0" encoding="UTF-8" standalone="no"?>
<svg
   style="display:inline"
   id="svg2408"
   height="64"
   width="64"
   version="1.0"
   sodipodi:docname="application-x-ms-wim.svg"
   inkscape:version="1.1.2 (0a00cf5339, 2022-02-04)"
   xmlns:inkscape="http://www.inkscape.org/namespaces/inkscape"
   xmlns:sodipodi="http://sodipodi.sourceforge.net/DTD/sodipodi-0.dtd"
   xmlns:xlink="http://www.w3.org/1999/xlink"
   xmlns="http://www.w3.org/2000/svg"
   xmlns:svg="http://www.w3.org/2000/svg"
   xmlns:rdf="http://www.w3.org/1999/02/22-rdf-syntax-ns#"
   xmlns:cc="http://creativecommons.org/ns#"
   xmlns:dc="http://purl.org/dc/elements/1.1/">
  <sodipodi:namedview
     id="namedview129"
     pagecolor="#ffffff"
     bordercolor="#666666"
     borderopacity="1.0"
     inkscape:pageshadow="2"
     inkscape:pageopacity="0.0"
     inkscape:pagecheckerboard="0"
     showgrid="false"
     inkscape:zoom="11.765625"
     inkscape:cx="34.592297"
     inkscape:cy="34.762284"
     inkscape:window-width="1920"
     inkscape:window-height="1026"
     inkscape:window-x="0"
     inkscape:window-y="26"
     inkscape:window-maximized="1"
     inkscape:current-layer="svg2408" />
  <defs
     id="defs2410">
    <linearGradient
       id="linearGradient3329">
      <stop
         offset="0"
         style="stop-color:#4f5927;stop-opacity:1"
         id="stop3331" />
      <stop
         offset="1"
         style="stop-color:#779f29;stop-opacity:1"
         id="stop3333" />
    </linearGradient>
    <linearGradient
       id="linearGradient3321">
      <stop
         offset="0"
         style="stop-color:#555a2a;stop-opacity:1"
         id="stop3323" />
      <stop
         offset="0.2"
         style="stop-color:#78982c;stop-opacity:1"
         id="stop3325" />
      <stop
         offset="1"
         style="stop-color:#78982c;stop-opacity:0"
         id="stop3327" />
    </linearGradient>
    <linearGradient
       id="linearGradient3315">
      <stop
         offset="0"
         style="stop-color:#6f842e;stop-opacity:1"
         id="stop3317" />
      <stop
         offset="1"
         style="stop-color:#86a135;stop-opacity:1"
         id="stop3319" />
    </linearGradient>
    <linearGradient
       id="linearGradient3604">
      <stop
         offset="0"
         style="stop-color:#2f2f2f;stop-opacity:1"
         id="stop3606" />
      <stop
         offset="0.43731192"
         style="stop-color:#ffffff;stop-opacity:1"
         id="stop3608" />
      <stop
         offset="0.62138397"
         style="stop-color:#979797;stop-opacity:1"
         id="stop3610" />
      <stop
         offset="0.7723214"
         style="stop-color:#505050;stop-opacity:1"
         id="stop3612" />
      <stop
         offset="1"
         style="stop-color:#e6e6e6;stop-opacity:1"
         id="stop3614" />
    </linearGradient>
    <linearGradient
       id="linearGradient3435">
      <stop
         offset="0"
         style="stop-color:#ededed;stop-opacity:1"
         id="stop3437" />
      <stop
         offset="1"
         style="stop-color:#b0b0b0;stop-opacity:1"
         id="stop3439" />
    </linearGradient>
    <linearGradient
       id="linearGradient3354">
      <stop
         offset="0"
         style="stop-color:#b4b4b4;stop-opacity:1"
         id="stop3356" />
      <stop
         offset="0.20467032"
         style="stop-color:#646464;stop-opacity:1"
         id="stop3362" />
      <stop
         offset="0.49567693"
         style="stop-color:#ffffff;stop-opacity:1"
         id="stop3364" />
      <stop
         offset="1"
         style="stop-color:#3c3c3c;stop-opacity:1"
         id="stop3358" />
    </linearGradient>
    <linearGradient
       id="linearGradient3290">
      <stop
         offset="0"
         style="stop-color:#ffffff;stop-opacity:1"
         id="stop3292" />
      <stop
         offset="0.48973215"
         style="stop-color:#8c8c8c;stop-opacity:1"
         id="stop3304" />
      <stop
         offset="0.50044644"
         style="stop-color:#cfcfcf;stop-opacity:1"
         id="stop3306" />
      <stop
         offset="0.62276787"
         style="stop-color:#ffffff;stop-opacity:1"
         id="stop3298" />
      <stop
         offset="0.81696427"
         style="stop-color:#c8c8c8;stop-opacity:1"
         id="stop3300" />
      <stop
         offset="1"
         style="stop-color:#505050;stop-opacity:1"
         id="stop3294" />
    </linearGradient>
    <linearGradient
       id="linearGradient3199">
      <stop
         offset="0"
         style="stop-color:#627626;stop-opacity:1"
         id="stop3201" />
      <stop
         offset="1"
         style="stop-color:#80b228;stop-opacity:1"
         id="stop3203" />
    </linearGradient>
    <linearGradient
       gradientTransform="scale(1.0058652,0.994169)"
       gradientUnits="userSpaceOnUse"
       id="ButtonShadow"
       y2="7.0165396"
       x2="45.447727"
       y1="92.539597"
       x1="45.447727">
      <stop
         offset="0"
         style="stop-color:#000000;stop-opacity:1"
         id="stop3750" />
      <stop
         offset="1"
         style="stop-color:#000000;stop-opacity:0.58823532"
         id="stop3752" />
    </linearGradient>
    <linearGradient
       id="linearGradient3737">
      <stop
         offset="0"
         style="stop-color:#ffffff;stop-opacity:1"
         id="stop3739" />
      <stop
         offset="1"
         style="stop-color:#ffffff;stop-opacity:0"
         id="stop3741" />
    </linearGradient>
    <filter
       style="color-interpolation-filters:sRGB"
       id="filter3174"
       x="-0.047720931"
       y="-0.048282354"
       width="1.0954419"
       height="1.0965647">
      <feGaussianBlur
         stdDeviation="1.71"
         id="feGaussianBlur3176" />
    </filter>
    <linearGradient
       gradientUnits="userSpaceOnUse"
       xlink:href="#linearGradient3737"
       id="linearGradient3220"
       y2="27.428572"
       x2="87.5"
       y1="74"
       x1="19.035713" />
    <linearGradient
       gradientUnits="userSpaceOnUse"
       xlink:href="#linearGradient3321"
       id="linearGradient3234"
       y2="73"
       x2="24"
       y1="73"
       x1="6" />
    <linearGradient
       gradientTransform="matrix(-1,0,0,1,96,0)"
       gradientUnits="userSpaceOnUse"
       xlink:href="#linearGradient3321"
       id="linearGradient3246"
       y2="73"
       x2="24"
       y1="73"
       x1="6" />
    <linearGradient
       gradientUnits="userSpaceOnUse"
       xlink:href="#linearGradient3199"
       id="linearGradient3223"
       y2="5.8331571"
       x2="38.748035"
       y1="72.409348"
       x1="38.748035" />
    <radialGradient
       gradientTransform="matrix(0,-1.085034,2,0,-90,187.65306)"
       gradientUnits="userSpaceOnUse"
       xlink:href="#linearGradient3315"
       id="radialGradient3229"
       fy="90"
       fx="90"
       r="42"
       cy="90"
       cx="90" />
    <clipPath
       id="clipPath3235">
      <path
         style="fill:#ffffff;fill-opacity:1;fill-rule:nonzero;stroke:none"
         id="path3237"
         d="m 66,6 v 55 c 0,1.662 1.338,3 3,3 h 6 c 1.662,0 3,-1.338 3,-3 V 6 H 74 V 8 H 70 V 6 Z" />
    </clipPath>
    <filter
       style="color-interpolation-filters:sRGB"
       id="filter3243"
       height="1.1089655"
       width="1.5266667"
       y="-0.054482758"
       x="-0.26333333">
      <feGaussianBlur
         stdDeviation="0.9"
         id="feGaussianBlur3245" />
    </filter>
    <linearGradient
       gradientTransform="translate(0,-1)"
       gradientUnits="userSpaceOnUse"
       xlink:href="#linearGradient3354"
       id="linearGradient3360"
       y2="59"
       x2="75.25"
       y1="59"
       x1="68.75" />
    <linearGradient
       gradientTransform="translate(0,-1)"
       gradientUnits="userSpaceOnUse"
       xlink:href="#linearGradient3290"
       id="linearGradient3372"
       y2="54"
       x2="73"
       y1="54"
       x1="69" />
    <linearGradient
       gradientUnits="userSpaceOnUse"
       xlink:href="#linearGradient3329"
       id="linearGradient3393"
       y2="65"
       x2="79"
       y1="64.163078"
       x1="63.484772" />
    <filter
       style="color-interpolation-filters:sRGB"
       id="filter3429"
       height="1.2122134"
       width="1.3435483"
       y="-0.10610671"
       x="-0.17177414">
      <feGaussianBlur
         stdDeviation="0.53551312"
         id="feGaussianBlur3431" />
    </filter>
    <linearGradient
       gradientTransform="matrix(-1,0,0,1,144.03125,-2)"
       gradientUnits="userSpaceOnUse"
       xlink:href="#linearGradient3435"
       id="linearGradient3489"
       y2="17.5"
       x2="75.0625"
       y1="17.5"
       x1="68.96875" />
    <linearGradient
       gradientTransform="translate(0,-2)"
       gradientUnits="userSpaceOnUse"
       xlink:href="#linearGradient3435"
       id="linearGradient3516"
       y2="17.763245"
       x2="75.97097"
       y1="17.763245"
       x1="68.02903" />
    <linearGradient
       gradientTransform="matrix(1.1262691,0,0,1,-7.4019692,-49.5)"
       gradientUnits="userSpaceOnUse"
       xlink:href="#linearGradient3354"
       id="linearGradient3530"
       y2="59"
       x2="72.250572"
       y1="59"
       x1="68.75" />
    <linearGradient
       gradientTransform="matrix(-1,0,0,1,144,-4)"
       gradientUnits="userSpaceOnUse"
       xlink:href="#linearGradient3604"
       id="linearGradient3602"
       y2="54"
       x2="73"
       y1="54"
       x1="69" />
    <clipPath
       id="clipPath3352">
      <path
         style="fill:#ffffff;fill-opacity:1;fill-rule:nonzero;stroke:none"
         id="path3354"
         d="m 11.6875,64.375 c -2.216,0 -4,1.784 -4,4 v 33.6875 c 0,2.216 1.7839995,4 4,4 h 36.09375 c 2.216,0 4.000001,-1.784 4,-4 V 68.375 c 0,-2.216 -1.783999,-4 -4,-4 z M 18.5625,80 h 7.28125 v 1.90625 c -0.205135,0.352212 -0.433858,0.778115 -0.71875,1.28125 -0.273511,0.490577 -0.575773,1.015144 -0.90625,1.59375 -0.33049,0.578625 -0.697833,1.202249 -1.0625,1.84375 -0.364677,0.641516 -0.717686,1.295995 -1.09375,1.9375 -0.364676,0.641514 -0.748935,1.258652 -1.125,1.875 -0.376071,0.616355 -0.740476,1.177874 -1.09375,1.71875 H 26 V 94 h -8 v -1.96875 l 5,-8.71875 c 0.159539,-0.26414 0.289347,-0.498418 0.4375,-0.75 0.159538,-0.251561 0.329054,-0.529665 0.5,-0.78125 h -5.375 z M 28,80 h 1.8125 V 94 H 28 Z m 4,0 h 4.21875 c 0.440246,1.4e-5 0.847477,0.0122 1.25,0.0625 0.402509,0.03775 0.785371,0.130319 1.125,0.28125 0.339615,0.150957 0.64209,0.398204 0.90625,0.6875 0.276721,0.289321 0.498811,0.665695 0.6875,1.15625 0.125777,0.314476 0.230925,0.641715 0.28125,0.96875 0.05031,0.314475 0.06249,0.641717 0.0625,0.96875 -9e-6,0.528311 -0.06782,1.034206 -0.21875,1.5625 -0.138374,0.515731 -0.360463,0.997257 -0.6875,1.4375 -0.188688,0.264157 -0.466793,0.492735 -0.78125,0.65625 -0.314473,0.163528 -0.647806,0.274379 -1,0.375 -0.352208,0.08806 -0.697724,0.149768 -1.0625,0.1875 -0.352206,0.02516 -0.660776,0.06251 -0.9375,0.0625 H 33.8125 V 94 H 32 Z m 1.84375,1.78125 v 4.78125 h 2.09375 c 0.85534,7e-6 1.509425,-0.222477 2,-0.625 0.503137,-0.415086 0.781243,-1.020037 0.78125,-1.8125 -8e-6,-0.226406 -0.02477,-0.461073 -0.0625,-0.6875 -0.03774,-0.238983 -0.09946,-0.45498 -0.1875,-0.65625 C 38.380692,82.580003 38.263356,82.400955 38.125,82.25 37.986628,82.08649 37.826253,81.981733 37.625,81.90625 37.461472,81.843369 37.251566,81.812514 37,81.8125 36.761,81.79993 36.551095,81.78126 36.375,81.78125 Z" />
    </clipPath>
    <linearGradient
       gradientTransform="matrix(1.0058652,0,0,0.994169,100,0)"
       gradientUnits="userSpaceOnUse"
       id="ButtonShadow-0"
       y2="7.0165396"
       x2="45.447727"
       y1="92.539597"
       x1="45.447727">
      <stop
         offset="0"
         style="stop-color:#000000;stop-opacity:1"
         id="stop3750-8" />
      <stop
         offset="1"
         style="stop-color:#000000;stop-opacity:0.58823532"
         id="stop3752-5" />
    </linearGradient>
    <linearGradient
       gradientTransform="matrix(1.0238095,0,0,1.0119048,-1.1428571,-98.071429)"
       gradientUnits="userSpaceOnUse"
       xlink:href="#ButtonShadow-0"
       id="linearGradient3780"
       y2="90.238609"
       x2="32.251034"
       y1="6.1317081"
       x1="32.251034" />
    <linearGradient
       gradientTransform="matrix(1.0238095,0,0,1.0119048,-1.1428571,-98.071429)"
       gradientUnits="userSpaceOnUse"
       xlink:href="#ButtonShadow-0"
       id="linearGradient3772"
       y2="90.238609"
       x2="32.251034"
       y1="6.1317081"
       x1="32.251034" />
    <linearGradient
       gradientTransform="matrix(1.0238095,0,0,1.0119048,-1.1428571,-98.071429)"
       gradientUnits="userSpaceOnUse"
       xlink:href="#ButtonShadow-0"
       id="linearGradient3725"
       y2="90.238609"
       x2="32.251034"
       y1="6.1317081"
       x1="32.251034" />
    <linearGradient
       gradientTransform="translate(0,-97)"
       gradientUnits="userSpaceOnUse"
       xlink:href="#ButtonShadow-0"
       id="linearGradient3721"
       y2="90.238609"
       x2="32.251034"
       y1="6.1317081"
       x1="32.251034" />
    <linearGradient
       gradientTransform="matrix(1.0238095,0,0,1.0119048,-1.1428571,-98.071429)"
       gradientUnits="userSpaceOnUse"
       xlink:href="#ButtonShadow-0"
       id="linearGradient3760"
       y2="90.238609"
       x2="32.251034"
       y1="6.1317081"
       x1="32.251034" />
    <linearGradient
       y2="54"
       x2="73"
       y1="54"
       x1="69"
       gradientTransform="translate(0,-1)"
       gradientUnits="userSpaceOnUse"
       id="linearGradient942"
       xlink:href="#linearGradient3290" />
    <linearGradient
       y2="54"
       x2="73"
       y1="54"
       x1="69"
       gradientTransform="matrix(-1,0,0,1,144,-4)"
       gradientUnits="userSpaceOnUse"
       id="linearGradient944"
       xlink:href="#linearGradient3604" />
    <linearGradient
       id="linearGradient3291">
      <stop
         offset="0"
         style="stop-color:#3a2178;stop-opacity:1"
         id="stop3285" />
      <stop
         offset="0.2"
         style="stop-color:#9b78f5;stop-opacity:1"
         id="stop3287" />
      <stop
         offset="1"
         style="stop-color:#4f2da5;stop-opacity:0"
         id="stop3289" />
    </linearGradient>
    <linearGradient
       id="linearGradient3327">
      <stop
         offset="0"
         style="stop-color:#bfafe9;stop-opacity:1"
         id="stop3329" />
      <stop
         offset="1"
         style="stop-color:#bcabe7;stop-opacity:0"
         id="stop3335" />
    </linearGradient>
    <linearGradient
       id="linearGradient3318">
      <stop
         offset="0"
         style="stop-color:#261650;stop-opacity:1"
         id="stop3320" />
      <stop
         offset="0.2"
         style="stop-color:#9b78f5;stop-opacity:1"
         id="stop3322" />
      <stop
         offset="1"
         style="stop-color:#4f2da5;stop-opacity:0"
         id="stop3324" />
    </linearGradient>
    <linearGradient
       id="linearGradient3329-7">
      <stop
         offset="0"
         style="stop-color:#bcabe7;stop-opacity:0"
         id="stop3331-5" />
      <stop
         offset="1"
         style="stop-color:#bbaae7;stop-opacity:1"
         id="stop3333-3" />
    </linearGradient>
    <linearGradient
       id="linearGradient3315-5">
      <stop
         offset="0"
         style="stop-color:#9876ef;stop-opacity:1"
         id="stop3317-6" />
      <stop
         offset="1"
         style="stop-color:#6f4ace;stop-opacity:1"
         id="stop3319-2" />
    </linearGradient>
    <linearGradient
       id="linearGradient3199-0">
      <stop
         offset="0"
         style="stop-color:#7352c8;stop-opacity:1"
         id="stop3201-2" />
      <stop
         offset="1"
         style="stop-color:#bfafe9;stop-opacity:1"
         id="stop3203-3" />
    </linearGradient>
    <filter
       id="filter3174-2"
       color-interpolation-filters="sRGB"
       x="-0.047720931"
       y="-0.048282354"
       width="1.0954419"
       height="1.0965647">
      <feGaussianBlur
         stdDeviation="1.71"
         id="feGaussianBlur3176-2" />
    </filter>
    <linearGradient
       gradientUnits="userSpaceOnUse"
       xlink:href="#linearGradient3327"
       id="linearGradient3220-8"
       y2="27.428572"
       x2="87.5"
       y1="74"
       x1="19.035713" />
    <linearGradient
       gradientUnits="userSpaceOnUse"
       xlink:href="#linearGradient3291"
       id="linearGradient3234-9"
       y2="73"
       x2="24"
       y1="73"
       x1="6" />
    <linearGradient
       gradientTransform="matrix(-1,0,0,1,96,0)"
       gradientUnits="userSpaceOnUse"
       xlink:href="#linearGradient3318"
       id="linearGradient3246-7"
       y2="73"
       x2="24"
       y1="73"
       x1="6" />
    <linearGradient
       gradientUnits="userSpaceOnUse"
       xlink:href="#linearGradient3199-0"
       id="linearGradient3223-2"
       y2="5.8331571"
       x2="38.748035"
       y1="72.409348"
       x1="38.748035" />
    <radialGradient
       gradientTransform="matrix(0,-1.085034,2,0,-90,187.65306)"
       gradientUnits="userSpaceOnUse"
       xlink:href="#linearGradient3315-5"
       id="radialGradient3229-3"
       fy="90"
       fx="90"
       r="42"
       cy="90"
       cx="90" />
    <clipPath
       id="clipPath3235-6">
      <path
         style="fill:#ffffff;fill-opacity:1;fill-rule:nonzero;stroke:none"
         id="path3237-1"
         d="m 66,6 0,55 c 0,1.662 1.338,3 3,3 l 6,0 c 1.662,0 3,-1.338 3,-3 l 0,-55 -4,0 0,2 -4,0 0,-2 -4,0 z" />
    </clipPath>
    <filter
       id="filter3243-2"
       color-interpolation-filters="sRGB"
       height="1.1089655"
       width="1.5266667"
       y="-0.054482758"
       x="-0.26333333">
      <feGaussianBlur
         stdDeviation="0.9"
         id="feGaussianBlur3245-9" />
    </filter>
    <linearGradient
       gradientUnits="userSpaceOnUse"
       xlink:href="#linearGradient3329-7"
       id="linearGradient3393-0"
       y2="65"
       x2="79"
       y1="64.163078"
       x1="63.484772" />
    <filter
       id="filter3429-3"
       color-interpolation-filters="sRGB"
       height="1.2122134"
       width="1.3435483"
       y="-0.10610671"
       x="-0.17177415">
      <feGaussianBlur
         stdDeviation="0.53551312"
         id="feGaussianBlur3431-1" />
    </filter>
    <clipPath
       id="clipPath3369">
      <path
         style="fill:#ffffff;fill-opacity:1;fill-rule:nonzero;stroke:none"
         id="path3371"
         d="m 8.03125,66.65625 c -2.216,0 -4,1.784 -4,4 l 0,32.90625 c 0,2.216 1.784,4 4,4 l 46.0625,0 c 2.216,0 3.999999,-1.784 4,-4 l 0,-32.90625 c 0,-2.216 -1.784001,-4 -4,-4 l -46.0625,0 z M 31.75,80 c 0.58485,1.3e-5 1.099484,0.08631 1.5625,0.28125 0.463004,0.182781 0.896641,0.459164 1.25,0.8125 0.365527,0.341179 0.662551,0.762632 0.90625,1.25 0.24368,0.475207 0.447525,1.008902 0.59375,1.59375 l -1.71875,0.46875 c -0.109668,-0.414263 -0.260043,-0.79601 -0.40625,-1.125 -0.134037,-0.328971 -0.292871,-0.612234 -0.5,-0.84375 -0.207144,-0.243679 -0.438512,-0.409395 -0.71875,-0.53125 -0.268066,-0.134018 -0.591035,-0.218739 -0.96875,-0.21875 -0.645784,1.1e-5 -1.179482,0.171029 -1.59375,0.5 -0.414277,0.328993 -0.756313,0.76951 -1,1.28125 -0.231509,0.499574 -0.402526,1.047033 -0.5,1.65625 -0.08529,0.609233 -0.125001,1.177334 -0.125,1.75 -2e-6,0.572678 0.03971,1.178911 0.125,1.8125 0.08529,0.621415 0.237242,1.213884 0.46875,1.75 0.231502,0.536121 0.566657,0.990402 0.96875,1.34375 0.414269,0.341168 0.935781,0.500002 1.59375,0.5 0.438636,10e-7 0.839448,-0.09848 1.15625,-0.28125 0.328975,-0.182766 0.612237,-0.433201 0.84375,-0.75 0.231498,-0.316794 0.416276,-0.667288 0.5625,-1.09375 0.15839,-0.426454 0.258451,-0.887613 0.34375,-1.375 l 1.71875,0.53125 c -0.13404,0.621414 -0.331003,1.220765 -0.5625,1.78125 -0.219331,0.56049 -0.509473,1.061357 -0.875,1.5 -0.365543,0.426458 -0.800758,0.775378 -1.3125,1.03125 -0.499571,0.255875 -1.098923,0.375002 -1.78125,0.375 -0.657968,0 -1.238256,-0.105363 -1.75,-0.3125 -0.511752,-0.207136 -0.966033,-0.490397 -1.34375,-0.84375 -0.365538,-0.353349 -0.650376,-0.755738 -0.90625,-1.21875 -0.243692,-0.475193 -0.466603,-0.976062 -0.625,-1.5 -0.146215,-0.52393 -0.251578,-1.045445 -0.3125,-1.59375 -0.06092,-0.560482 -0.09375,-1.113245 -0.09375,-1.625 -1e-6,-0.487373 0.03283,-0.995124 0.09375,-1.53125 0.07311,-0.53611 0.185352,-1.050739 0.34375,-1.5625 0.158398,-0.511739 0.369124,-1.017911 0.625,-1.46875 0.255873,-0.463 0.571963,-0.865389 0.9375,-1.21875 0.377717,-0.353338 0.825116,-0.617534 1.3125,-0.8125 C 30.562061,80.105376 31.116401,80.000012 31.75,80 z m -11.625,0.21875 1.71875,0 4.40625,13.5625 -2,0 -1.21875,-4 -4,0 -1.125,4 -1.90625,0 4.125,-13.5625 z m 18.03125,0 7.84375,0 0,1.71875 -6.09375,0 0,3.96875 5.28125,0 0,1.71875 -5.28125,0 0,4.4375 6.34375,0 0,1.71875 -8.09375,0 0,-13.5625 z M 21,82.96875 c -0.182772,0.877294 -0.40038,1.753029 -0.65625,2.59375 -0.255878,0.828554 -0.52538,1.659275 -0.78125,2.5 l 2.90625,0 C 22.225054,87.221775 21.955554,86.371989 21.6875,85.53125 21.431621,84.690527 21.219317,83.83386 21,82.96875 z" />
    </clipPath>
    <style
       id="style5260">.cls-1{fill:#57a84c;}.cls-2{fill:#0083ca;}.cls-3{fill:#f26524;}.cls-4{fill:#febe10;}</style>
    <linearGradient
       inkscape:collect="always"
       xlink:href="#ButtonShadow"
       id="linearGradient1244"
       gradientUnits="userSpaceOnUse"
       gradientTransform="scale(1.0058652,0.994169)"
       x1="45.447727"
       y1="92.539597"
       x2="45.447727"
       y2="7.0165396" />
    <linearGradient
       inkscape:collect="always"
       xlink:href="#ButtonShadow-0"
       id="linearGradient1246"
       gradientUnits="userSpaceOnUse"
       gradientTransform="matrix(1.0238095,0,0,1.0119048,-1.1428571,-98.071429)"
       x1="32.251034"
       y1="6.1317081"
       x2="32.251034"
       y2="90.238609" />
    <linearGradient
       inkscape:collect="always"
       xlink:href="#ButtonShadow-0"
       id="linearGradient1248"
       gradientUnits="userSpaceOnUse"
       gradientTransform="matrix(1.0238095,0,0,1.0119048,-1.1428571,-98.071429)"
       x1="32.251034"
       y1="6.1317081"
       x2="32.251034"
       y2="90.238609" />
    <linearGradient
       inkscape:collect="always"
       xlink:href="#ButtonShadow-0"
       id="linearGradient1250"
       gradientUnits="userSpaceOnUse"
       gradientTransform="matrix(1.0238095,0,0,1.0119048,-1.1428571,-98.071429)"
       x1="32.251034"
       y1="6.1317081"
       x2="32.251034"
       y2="90.238609" />
    <linearGradient
       inkscape:collect="always"
       xlink:href="#ButtonShadow-0"
       id="linearGradient1252"
       gradientUnits="userSpaceOnUse"
       gradientTransform="matrix(1.0238095,0,0,1.0119048,-1.1428571,-98.071429)"
       x1="32.251034"
       y1="6.1317081"
       x2="32.251034"
       y2="90.238609" />
    <linearGradient
       inkscape:collect="always"
       xlink:href="#ButtonShadow-0"
       id="linearGradient1254"
       gradientUnits="userSpaceOnUse"
       gradientTransform="translate(0,-97)"
       x1="32.251034"
       y1="6.1317081"
       x2="32.251034"
       y2="90.238609" />
    <linearGradient
       inkscape:collect="always"
       xlink:href="#linearGradient3354"
       id="linearGradient1256"
       gradientUnits="userSpaceOnUse"
       gradientTransform="translate(0,-1)"
       x1="68.75"
       y1="59"
       x2="75.25"
       y2="59" />
    <linearGradient
       inkscape:collect="always"
       xlink:href="#linearGradient3435"
       id="linearGradient1258"
       gradientUnits="userSpaceOnUse"
       gradientTransform="translate(0,-2)"
       x1="68.02903"
       y1="17.763245"
       x2="75.97097"
       y2="17.763245" />
    <linearGradient
       inkscape:collect="always"
       xlink:href="#linearGradient3435"
       id="linearGradient1260"
       gradientUnits="userSpaceOnUse"
       gradientTransform="matrix(-1,0,0,1,144.03125,-2)"
       x1="68.96875"
       y1="17.5"
       x2="75.0625"
       y2="17.5" />
    <linearGradient
       inkscape:collect="always"
       xlink:href="#linearGradient3354"
       id="linearGradient1262"
       gradientUnits="userSpaceOnUse"
       gradientTransform="matrix(1.1262691,0,0,1,-7.4019692,-49.5)"
       x1="68.75"
       y1="59"
       x2="72.250572"
       y2="59" />
  </defs>
  <metadata
     id="metadata2413">
    <rdf:RDF>
      <cc:Work
         rdf:about="">
        <dc:format>image/svg+xml</dc:format>
        <dc:type
           rdf:resource="http://purl.org/dc/dcmitype/StillImage" />
        <dc:title />
      </cc:Work>
    </rdf:RDF>
  </metadata>
  <g
     transform="translate(0,-32)"
     style="display:none"
     id="layer2">
    <rect
       style="opacity:0.9;fill:url(#ButtonShadow);fill-opacity:1;fill-rule:nonzero;stroke:none;filter:url(#filter3174)"
       id="rect3745"
       y="7"
       x="5"
       ry="6"
       rx="6"
       height="85"
       width="86" />
  </g>
  <g
     style="display:inline;opacity:1"
     id="g1162"
     transform="matrix(0.64684606,0,0,0.64684606,0.74381642,0.50058224)">
    <g
       style="display:none"
       id="layer2-8">
      <rect
         style="opacity:0.9;fill:url(#linearGradient1244);fill-opacity:1;fill-rule:nonzero;stroke:none;filter:url(#filter3174-2)"
         id="rect3745-4"
         y="7"
         x="5"
         ry="6"
         rx="6"
         height="85"
         width="86" />
    </g>
    <g
       style="display:inline"
       id="layer6">
      <path
         style="display:inline;opacity:0.08;fill:url(#linearGradient1246);fill-opacity:1;fill-rule:nonzero;stroke:none"
         id="path3786-5"
         transform="scale(1,-1)"
         d="m 12,-95.03125 c -5.5110903,0 -10.03125,4.52016 -10.03125,10.03125 v 71 c 0,5.5110902 4.5201598,10.03125 10.03125,10.03125 h 72 c 5.51109,0 10.03125,-4.5201597 10.03125,-10.03125 v -71 c 0,-5.51109 -4.52016,-10.03125 -10.03125,-10.03125 z" />
      <path
         style="display:inline;opacity:0.1;fill:url(#linearGradient1248);fill-opacity:1;fill-rule:nonzero;stroke:none"
         id="path3778-0"
         transform="scale(1,-1)"
         d="m 12,-94.03125 c -4.971633,0 -9.03125,4.059617 -9.03125,9.03125 v 71 c 0,4.9716329 4.0596171,9.03125 9.03125,9.03125 h 72 c 4.971633,0 9.03125,-4.059617 9.03125,-9.03125 v -71 c 0,-4.971633 -4.059617,-9.03125 -9.03125,-9.03125 z" />
      <path
         style="display:inline;opacity:0.2;fill:url(#linearGradient1250);fill-opacity:1;fill-rule:nonzero;stroke:none"
         id="path3770-3"
         transform="scale(1,-1)"
         d="m 12,-93 c -4.4091333,0 -8,3.590867 -8,8 v 71 c 0,4.4091333 3.5908667,8 8,8 h 72 c 4.409133,0 8,-3.5908667 8,-8 v -71 c 0,-4.409133 -3.590867,-8 -8,-8 z" />
      <rect
         style="display:inline;opacity:0.3;fill:url(#linearGradient1252);fill-opacity:1;fill-rule:nonzero;stroke:none"
         id="rect3723-6"
         transform="scale(1,-1)"
         y="-92"
         x="5"
         ry="7"
         rx="7"
         height="85"
         width="86" />
      <rect
         style="display:inline;opacity:0.45;fill:url(#linearGradient1254);fill-opacity:1;fill-rule:nonzero;stroke:none"
         id="rect3716-1"
         transform="scale(1,-1)"
         y="-91"
         x="6"
         ry="6"
         rx="6"
         height="84"
         width="84" />
    </g>
    <g
       style="display:inline"
       id="layer1-0">
      <path
         style="fill:url(#radialGradient3229-3);fill-opacity:1;fill-rule:nonzero;stroke:none"
         id="rect2419-6"
         d="M 12,6 C 8.676,6 6,8.676 6,12 v 72 c 0,3.324 2.676,6 6,6 h 72 c 3.324,0 6,-2.676 6,-6 V 12 C 90,8.676 87.324,6 84,6 H 75 V 9 H 69 V 6 Z" />
      <path
         style="fill:url(#linearGradient3234-9);fill-opacity:1;fill-rule:nonzero;stroke:none"
         id="rect3222-3"
         d="m 6,56 v 28 c 0,3.324 2.676,6 6,6 H 24 V 56 Z" />
      <path
         style="fill:url(#linearGradient3246-7);fill-opacity:1;fill-rule:nonzero;stroke:none"
         id="path3244-2"
         d="m 90,56 v 28 c 0,3.324 -2.676,6 -6,6 H 72 V 56 Z" />
      <path
         style="opacity:0.5;fill:#3a2178;fill-opacity:1;fill-rule:nonzero;stroke:none"
         id="rect2412-0"
         d="m 6,82 v 2 c 0,3.324 2.676,6 6,6 h 72 c 3.324,0 6,-2.676 6,-6 v -2 c 0,3.324 -2.676,6 -6,6 H 12 C 8.676,88 6,85.324 6,82 Z" />
      <path
         style="opacity:0.4;fill:#9876ef;fill-opacity:1;fill-rule:nonzero;stroke:none"
         id="path3187-6"
         d="m 6,78 v 2 c 0,3.324 2.676,6 6,6 h 72 c 3.324,0 6,-2.676 6,-6 v -2 c 0,3.324 -2.676,6 -6,6 H 12 C 8.676,84 6,81.324 6,78 Z" />
      <path
         style="opacity:0.5;fill:#3a2178;fill-opacity:1;fill-rule:nonzero;stroke:none"
         id="path3189-1"
         d="m 6,76 v 2 c 0,3.324 2.676,6 6,6 h 72 c 3.324,0 6,-2.676 6,-6 v -2 c 0,3.324 -2.676,6 -6,6 H 12 C 8.676,82 6,79.324 6,76 Z" />
      <path
         style="opacity:0.4;fill:#9876ef;fill-opacity:1;fill-rule:nonzero;stroke:none"
         id="path3191-5"
         d="m 6,72 v 2 c 0,3.324 2.676,6 6,6 h 72 c 3.324,0 6,-2.676 6,-6 v -2 c 0,3.324 -2.676,6 -6,6 H 12 C 8.676,78 6,75.324 6,72 Z" />
      <path
         style="opacity:0.5;fill:#3a2178;fill-opacity:1;fill-rule:nonzero;stroke:none"
         id="path3193-5"
         d="m 6,70 v 2 c 0,3.324 2.676,6 6,6 h 72 c 3.324,0 6,-2.676 6,-6 v -2 c 0,3.324 -2.676,6 -6,6 H 12 C 8.676,76 6,73.324 6,70 Z" />
      <path
         style="fill:url(#linearGradient3223-2);fill-opacity:1;fill-rule:nonzero;stroke:none"
         id="rect3195-4"
         d="M 12,6 C 8.676,6 6,8.676 6,12 v 56 c 0,3.324 2.676,6 6,6 h 72 c 3.324,0 6,-2.676 6,-6 V 12 C 90,8.676 87.324,6 84,6 H 75 V 9 H 69 V 6 Z" />
      <path
         style="fill:url(#linearGradient3220-8);fill-opacity:1;fill-rule:nonzero;stroke:none"
         id="rect3207-7"
         d="M 12,6 C 8.676,6 6,8.676 6,12 v 56 c 0,3.324 2.676,6 6,6 h 72 c 3.324,0 6,-2.676 6,-6 V 12 C 90,8.676 87.324,6 84,6 h -9 v 2 h 9 c 2.245802,0 4,1.7541975 4,4 v 56 c 0,2.245802 -1.754198,4 -4,4 H 12 C 9.7541975,72 8,70.245802 8,68 V 12 C 8,9.7541975 9.7541975,8 12,8 H 69 V 6 Z" />
    </g>
    <g
       style="display:inline"
       id="layer3-6">
      <path
         style="fill:#252525;fill-opacity:1;fill-rule:nonzero;stroke:none"
         id="rect3201-5"
         d="m 66,6 v 55 c 0,1.662 1.338,3 3,3 h 6 c 1.662,0 3,-1.338 3,-3 V 6 H 74 V 8 H 70 V 6 Z" />
      <rect
         style="fill:#4d4d4d;fill-opacity:1;fill-rule:nonzero;stroke:none"
         id="rect3247-6"
         y="8"
         x="70"
         height="49"
         width="4" />
      <rect
         style="fill:url(#linearGradient1256);fill-opacity:1;fill-rule:nonzero;stroke:#000000;stroke-width:0.5;stroke-linecap:square;stroke-linejoin:miter;stroke-miterlimit:4;stroke-dasharray:none;stroke-dashoffset:0;stroke-opacity:0.563636"
         id="rect3211-9"
         y="56"
         x="69"
         ry="1"
         rx="1"
         height="4"
         width="6" />
      <path
         style="fill:none;stroke:#000000;stroke-width:2;stroke-linecap:square;stroke-linejoin:miter;stroke-miterlimit:4;stroke-dasharray:none;stroke-dashoffset:0;stroke-opacity:1;filter:url(#filter3243-2)"
         id="path3231-3"
         clip-path="url(#clipPath3235-6)"
         d="m 66,6 v 55 c 0,1.662 1.338,3 3,3 h 6 c 1.662,0 3,-1.338 3,-3 V 6 H 74 V 8 H 70 V 6 Z" />
      <path
         style="fill:url(#linearGradient3372);fill-opacity:1;fill-rule:nonzero;stroke:#000000;stroke-width:0.5;stroke-linecap:square;stroke-linejoin:miter;stroke-miterlimit:4;stroke-dasharray:none;stroke-dashoffset:0;stroke-opacity:0.563636"
         id="rect3249-7"
         d="M 69.5,51 C 69.230226,51 69,51.217964 69,51.5 v 3 c 0,0.282036 0.230229,0.5 0.5,0.5 h 1 C 70.769774,55 71,54.782036 71,54.5 V 54 h 1.5 c 0.277,0 0.5,-0.223 0.5,-0.5 v -1 C 73,52.223 72.777,52 72.5,52 H 71 V 51.5 C 71,51.217964 70.769771,51 70.5,51 Z" />
      <use
         xlink:href="#rect3249-7"
         height="96"
         width="96"
         y="0"
         x="0"
         id="use3308-4"
         transform="translate(0,-6)" />
      <use
         xlink:href="#use3308-4"
         height="96"
         width="96"
         y="0"
         x="0"
         id="use3310-5"
         transform="translate(0,-6)" />
      <use
         xlink:href="#use3310-5"
         height="96"
         width="96"
         y="0"
         x="0"
         id="use3312-2"
         transform="translate(0,-6)" />
      <use
         xlink:href="#use3312-2"
         height="96"
         width="96"
         y="0"
         x="0"
         id="use3314-5"
         transform="translate(0,-6)" />
      <use
         xlink:href="#use3314-5"
         height="96"
         width="96"
         y="0"
         x="0"
         id="use3316-4"
         transform="translate(0,-6)" />
      <use
         xlink:href="#use3316-4"
         height="96"
         width="96"
         y="0"
         x="0"
         id="use3318-7"
         transform="translate(0,-6)" />
      <use
         xlink:href="#use3318-7"
         height="96"
         width="96"
         y="0"
         x="0"
         id="use3320-4"
         transform="translate(0,-6)" />
      <path
         style="fill:url(#linearGradient3602);fill-opacity:1;fill-rule:nonzero;stroke:#000000;stroke-width:0.5;stroke-linecap:square;stroke-linejoin:miter;stroke-miterlimit:4;stroke-dasharray:none;stroke-dashoffset:0;stroke-opacity:0.563636"
         id="path3322-4"
         d="m 74.5,48 c 0.269774,0 0.5,0.217964 0.5,0.5 v 3 c 0,0.282036 -0.230229,0.5 -0.5,0.5 h -1 C 73.230226,52 73,51.782036 73,51.5 V 51 H 71.5 C 71.223,51 71,50.777 71,50.5 v -1 C 71,49.223 71.223,49 71.5,49 H 73 V 48.5 C 73,48.217964 73.230229,48 73.5,48 Z" />
      <use
         xlink:href="#path3322-4"
         height="96"
         width="96"
         y="0"
         x="0"
         id="use3340-3"
         transform="translate(0,-6)" />
      <use
         xlink:href="#use3340-3"
         height="96"
         width="96"
         y="0"
         x="0"
         id="use3342-0"
         transform="translate(0,-6)" />
      <use
         xlink:href="#use3342-0"
         height="96"
         width="96"
         y="0"
         x="0"
         id="use3344-7"
         transform="translate(0,-6)" />
      <use
         xlink:href="#use3344-7"
         height="96"
         width="96"
         y="0"
         x="0"
         id="use3346-8"
         transform="translate(0,-6)" />
      <use
         xlink:href="#use3346-8"
         height="96"
         width="96"
         y="0"
         x="0"
         id="use3348-6"
         transform="translate(0,-6)" />
      <use
         xlink:href="#use3348-6"
         height="96"
         width="96"
         y="0"
         x="0"
         id="use3350-8"
         transform="translate(0,-6)" />
      <path
         style="fill:url(#linearGradient3393-0);fill-opacity:1;fill-rule:nonzero;stroke:none"
         id="path3376-8"
         d="m 65,6 v 55 c 0,2.202295 1.797705,4 4,4 h 6 c 2.202295,0 4,-1.797705 4,-4 V 6 h -1 v 55 c 0,1.662 -1.338,3 -3,3 h -6 c -1.662,0 -3,-1.338 -3,-3 V 6 Z" />
      <path
         style="fill:#000000;fill-opacity:1;fill-rule:nonzero;stroke:#000000;stroke-width:0.5;stroke-linecap:square;stroke-linejoin:miter;stroke-miterlimit:4;stroke-dasharray:none;stroke-dashoffset:0;stroke-opacity:0.563636;filter:url(#filter3429-3)"
         id="path3433-4"
         transform="translate(0,-2)"
         d="m 69.5,10.53125 c -1.027701,0 -1.96875,0.765203 -1.96875,1.8125 v 10.8125 C 67.531245,24.203555 68.449331,25 69.5,25 h 5 c 1.050668,0 1.96875,-0.796448 1.96875,-1.84375 v -10.8125 c -3e-6,-1.047297 -0.941051,-1.8125 -1.96875,-1.8125 z m 1.0625,9.0625 h 2.875 v 1.75 h -2.875 z" />
      <path
         style="fill:url(#linearGradient1258);fill-opacity:1;fill-rule:nonzero;stroke:none"
         id="rect3403-3"
         d="M 69.229249,9.021415 C 68.54211,9.021415 68,9.503785 68,10.102963 L 67.9949,20.918451 C 67.994922,21.51763 68.537034,22 69.224171,22 h 5.583221 c 0.687139,0 1.229249,-0.48237 1.229249,-1.081549 l 0.0051,-10.815488 c 0,-0.599178 -0.542112,-1.081548 -1.229249,-1.081548 h -5.583221 z m 0.704303,7.949648 h 4.101324 v 3.118378 h -4.101324 z" />
      <path
         style="fill:url(#linearGradient1260);fill-opacity:1;fill-rule:nonzero;stroke:none"
         id="rect3470-1"
         d="m 74.5625,9.96875 c 0.277,0 0.5,0.223 0.5,0.5 v 10.0625 c 0,0.277 -0.223,0.5 -0.5,0.5 h -5.09375 c -0.277,0 -0.499999,-0.223 -0.5,-0.5 v -10.0625 c 0,-0.277 0.223001,-0.5 0.5,-0.5 z M 74.125,16.9375 H 70 v 3.125 h 4.125 z" />
      <rect
         style="fill:url(#linearGradient1262);fill-opacity:1;fill-rule:nonzero;stroke:#000000;stroke-width:1;stroke-linecap:square;stroke-linejoin:miter;stroke-miterlimit:4;stroke-dasharray:none;stroke-dashoffset:0;stroke-opacity:0.563636"
         id="rect3399-4"
         y="7.5"
         x="70.3106"
         ry="0.5"
         rx="0.56313455"
         height="5"
         width="3.3788073" />
      <rect
         style="opacity:0.3;fill:#000000;fill-opacity:1;fill-rule:nonzero;stroke:none"
         id="rect3518-9"
         y="16"
         x="69.984634"
         height="1"
         width="4" />
    </g>
    <g
       id="g5280"
       transform="matrix(0.2524956,0,0,0.25294528,13,28.00381)"
       style="opacity:0.436519">
      <path
         class="cls-1"
         d="m 170,20.7 c -33,13.7 -49,6 -63.2,-3.6 l -16,56.4 c 14.3,9.7 31.5,17.7 63.2,3.5 l 16.3,-56.3 z"
         id="path5264"
         style="fill:#ffffff;fill-opacity:1" />
      <path
         class="cls-2"
         d="M 63,134.2 C 48.7,124.6 33,116.6 0,130.3 L 16.2,73.7 c 33,-13.6 49,-5.9 63.3,3.8 z"
         id="path5266"
         style="fill:#fdfdfd;fill-opacity:1" />
      <path
         class="cls-3"
         d="M 82.2,67.3 A 53.91,53.91 0 0 0 51.2,56 C 42.5,55.9 32.1,58.4 19,63.8 L 35.2,7.4 c 33.1,-13.7 49,-6 63.3,3.7 z"
         id="path5268"
         style="fill:#ffffff;fill-opacity:1" />
      <path
         class="cls-4"
         d="m 88,83 c 14.4,9.6 30.3,17.3 63.3,3.6 L 135,142.8 c -33,13.7 -48.9,6 -63.2,-3.7 L 88.1,83 Z"
         id="path5270"
         style="fill:#ffffff;fill-opacity:1" />
    </g>
  </g>
</svg>
